<svg width="18" height="12" viewBox="0 0 18 12" fill="none" xmlns="http://www.w3.org/2000/svg">
<path d="M11.3729 1.53858C11.0213 1.1865 11.0213 0.616137 11.3729 0.264059C11.7244 -0.0880195 12.2939 -0.0880195 12.6455 0.264059L17.7385 5.36274C17.9072 5.53174 18.001 5.76117 18.001 6C18.001 6.23883 17.9072 6.46826 17.7385 6.63726L12.6455 11.7359C12.2939 12.088 11.7244 12.088 11.3729 11.7359C11.0213 11.3839 11.0213 10.8135 11.3729 10.4614L14.8674 6.96117H0.899025C0.402149 6.96117 -0.000976562 6.55746 -0.000976562 6.05985C-0.000976562 5.82572 0.0880871 5.61213 0.235743 5.45193C0.399805 5.27178 0.636524 5.15853 0.899025 5.15853H14.9869L11.3729 1.53858Z" fill="white"/>
</svg>
