<svg width="10" height="12" viewBox="0 0 10 12" fill="none" xmlns="http://www.w3.org/2000/svg">
<path d="M9.28028 5.28027C9.1338 5.42675 8.94239 5.5 8.75001 5.5C8.55763 5.5 8.36622 5.42676 8.21974 5.28027L5.50001 2.56054V10.75C5.50001 11.164 5.16407 11.5 4.75001 11.5C4.33595 11.5 4.00001 11.164 4.00001 10.75V2.56055L1.28028 5.28028C0.987307 5.57325 0.512698 5.57325 0.219728 5.28028C-0.0732425 4.98731 -0.0732425 4.5127 0.219728 4.21973L4.21974 0.219728C4.51271 -0.0732425 4.98732 -0.0732425 5.28029 0.219728L9.28029 4.21973C9.57326 4.5127 9.57325 4.9873 9.28028 5.28027Z" fill="black"/>
</svg>
