<svg width="100" height="100" viewBox="0 0 100 100" fill="none" xmlns="http://www.w3.org/2000/svg">
<path d="M50 100C77.6142 100 100 77.6142 100 50C100 22.3858 77.6142 0 50 0C22.3858 0 0 22.3858 0 50C0 77.6142 22.3858 100 50 100Z" fill="#1A1A1A"/>
<path fill-rule="evenodd" clip-rule="evenodd" d="M85.0541 29.1373C84.8785 28.9829 84.6513 28.9057 84.3723 28.9057H83.3039V31.8731H83.8774V30.6199H84.0856C84.1776 30.6199 84.259 30.6432 84.3298 30.69C84.4006 30.7353 84.4743 30.8132 84.5507 30.9236C84.6272 31.0326 84.7476 31.245 84.9118 31.5608C84.9869 31.7038 85.0463 31.8079 85.0902 31.8731H85.7296C85.6418 31.7371 85.5073 31.4893 85.326 31.1296C85.217 30.9215 85.1256 30.7735 85.052 30.6857C84.9784 30.5979 84.8941 30.5285 84.7992 30.4775C84.9706 30.4053 85.0994 30.3069 85.1858 30.1823C85.2736 30.0563 85.3175 29.909 85.3175 29.7405C85.3175 29.4927 85.2297 29.2916 85.0541 29.1373ZM84.5953 30.0591C84.5104 30.1342 84.3928 30.1717 84.2427 30.1717H83.8774V29.3454H84.2342C84.3914 29.3454 84.5125 29.3794 84.5975 29.4474C84.6824 29.5139 84.7249 29.6152 84.7249 29.7511C84.7249 29.8814 84.6817 29.9841 84.5953 30.0591Z" fill="white"/>
<path fill-rule="evenodd" clip-rule="evenodd" d="M84.3839 27.2837C82.5881 27.2837 81.1322 28.7395 81.1322 30.5354C81.1322 32.3313 82.5881 33.7871 84.3839 33.7871C86.1798 33.7871 87.6356 32.3313 87.6356 30.5354C87.6356 28.7395 86.1798 27.2837 84.3839 27.2837ZM81.3498 30.5354C81.3498 28.8597 82.7082 27.5012 84.3839 27.5012C86.0597 27.5012 87.4181 28.8597 87.4181 30.5354C87.4181 32.2111 86.0597 33.5696 84.3839 33.5696C82.7082 33.5696 81.3498 32.2111 81.3498 30.5354Z" fill="white"/>
<path d="M16.7743 32.5269C16.6721 32.2647 16.8654 31.9818 17.1468 31.9818H23.1012C23.266 31.9818 23.4139 32.0829 23.4737 32.2364L30.6586 50.6672C30.9233 51.3463 31.8841 51.3463 32.1489 50.6672L35.4017 42.323C35.4745 42.1362 35.4745 41.9289 35.4017 41.742L31.8094 32.5269C31.7071 32.2647 31.9005 31.9818 32.1819 31.9818H38.1362C38.301 31.9818 38.4489 32.0829 38.5088 32.2364L49.3893 60.1473C49.4915 60.4095 49.2981 60.6924 49.0168 60.6924H43.0624C42.8976 60.6924 42.7497 60.5913 42.6899 60.4378L39.6664 52.6819C39.4017 52.0029 38.4409 52.0029 38.1761 52.6819L35.1527 60.4378C35.0928 60.5913 34.9449 60.6924 34.7801 60.6924H28.8258H28.8244H28.0273C27.8625 60.6924 27.7146 60.5913 27.6548 60.4378L16.7743 32.5269Z" fill="white"/>
<path d="M54.8098 32.5221C54.9078 32.2607 54.7146 31.9818 54.4354 31.9818H48.4768C48.3101 31.9818 48.1609 32.0852 48.1024 32.2413L44.0227 43.1204C43.9247 43.3819 44.1179 43.6607 44.3971 43.6607H50.3557C50.5224 43.6607 50.6716 43.5573 50.7301 43.4012L54.8098 32.5221Z" fill="white"/>
<path fill-rule="evenodd" clip-rule="evenodd" d="M62.3157 49.5761C61.9103 49.5761 61.6422 49.993 61.8463 50.3432C62.1889 50.9312 62.6076 51.4765 63.095 51.9639C64.3336 53.2025 65.9464 53.9978 67.6831 54.2265C69.2342 54.4307 70.8069 54.1726 72.2061 53.4911C72.4841 53.3557 72.8257 53.4455 72.9803 53.7133L75.6195 58.2844C75.7741 58.5521 75.6828 58.8956 75.4092 59.0396C72.7865 60.4204 69.7957 60.9577 66.848 60.5696C63.7149 60.1572 60.8055 58.7224 58.571 56.4879C56.3365 54.2533 54.9017 51.3439 54.4892 48.2109C54.0768 45.0778 54.7096 41.8962 56.2897 39.1595C57.8697 36.4227 60.3086 34.2839 63.2282 33.0745C66.1477 31.8652 69.3847 31.6531 72.4371 32.471C75.4896 33.2888 78.1868 35.0911 80.1106 37.5982C82.0317 40.1018 83.0742 43.1686 83.077 46.3242C83.077 46.3313 83.0712 46.3371 83.0641 46.3371C83.0519 46.3371 83.0465 46.3524 83.056 46.3601L83.0699 46.3713C83.0744 46.375 83.077 46.3805 83.077 46.3863V49.0162C83.077 49.3254 82.8264 49.5761 82.5172 49.5761H62.3157ZM65.6766 38.9854C67.2949 38.3151 69.0892 38.1975 70.7812 38.6509C72.4732 39.1043 73.9684 40.1033 75.0348 41.493C75.2606 41.7873 75.4646 42.0957 75.6458 42.4157C75.8442 42.7661 75.5759 43.1782 75.1732 43.1782H62.2703C61.8676 43.1782 61.5992 42.7661 61.7977 42.4157C61.8085 42.3965 61.8194 42.3775 61.8304 42.3584C62.7063 40.8414 64.0582 39.6558 65.6766 38.9854Z" fill="white"/>
<path d="M78.365 75.1044C78.6895 75.1971 79.0517 75.2435 79.4515 75.2435C79.9151 75.2435 80.3237 75.1681 80.6772 75.0175C81.0364 74.861 81.3175 74.6379 81.5203 74.3482C81.7289 74.0526 81.8333 73.6933 81.8333 73.2703C81.8333 72.9979 81.7811 72.7603 81.6768 72.5575C81.5783 72.3489 81.4334 72.1693 81.2422 72.0186C81.0567 71.8679 80.8336 71.7404 80.5728 71.6361C80.3179 71.5318 80.031 71.4478 79.7123 71.384C79.5732 71.3609 79.4399 71.3319 79.3125 71.2971C79.185 71.2565 79.072 71.2102 78.9734 71.158C78.8749 71.1001 78.7967 71.0363 78.7388 70.9668C78.6808 70.8973 78.6518 70.8132 78.6518 70.7147C78.6518 70.6046 78.6866 70.5119 78.7561 70.4366C78.8257 70.3554 78.9213 70.2946 79.043 70.254C79.1705 70.2077 79.3211 70.1845 79.495 70.1845C79.663 70.1845 79.8253 70.2106 79.9818 70.2627C80.144 70.3149 80.2947 70.3902 80.4338 70.4887C80.5179 70.5459 80.5982 70.612 80.6745 70.6868C80.7656 70.7761 80.9127 70.7865 81.0046 70.6981L81.6161 70.1099C81.6916 70.0372 81.7055 69.9203 81.6412 69.8376C81.5184 69.6793 81.3767 69.54 81.2161 69.4196C81.0133 69.2631 80.767 69.1443 80.4772 69.0632C80.1933 68.9762 79.8514 68.9328 79.4515 68.9328C79.1502 68.9328 78.8604 68.9791 78.5823 69.0719C78.3041 69.1588 78.0578 69.2863 77.8434 69.4543C77.6348 69.6166 77.4668 69.8136 77.3393 70.0454C77.2176 70.2714 77.1567 70.5206 77.1567 70.793C77.1567 71.0479 77.1973 71.2797 77.2784 71.4883C77.3596 71.6912 77.4812 71.8737 77.6435 72.036C77.8116 72.1924 78.0202 72.3257 78.2694 72.4358C78.5185 72.5459 78.8112 72.6386 79.1473 72.714C79.269 72.7372 79.3878 72.7661 79.5037 72.8009C79.6196 72.8299 79.7297 72.8675 79.834 72.9139C79.9383 72.9545 80.0281 73.0008 80.1035 73.053C80.1788 73.1051 80.2367 73.166 80.2773 73.2355C80.3237 73.3051 80.3468 73.3833 80.3468 73.4702C80.3468 73.5861 80.3121 73.6846 80.2425 73.7658C80.173 73.8411 80.0745 73.899 79.947 73.9396C79.8195 73.9802 79.6775 74.0005 79.5211 74.0005C79.2081 74.0005 78.9039 73.9338 78.6084 73.8005C78.3743 73.6929 78.1402 73.502 77.9062 73.228C77.8164 73.1229 77.6532 73.1158 77.5619 73.2195L76.9637 73.899C76.8943 73.9779 76.8907 74.0956 76.9598 74.1748C77.1272 74.3664 77.3116 74.5372 77.5131 74.6872C77.7623 74.8668 78.0462 75.0059 78.365 75.1044Z" fill="white"/>
<path d="M20.0771 75.1565C19.957 75.1565 19.8596 75.0592 19.8596 74.939V70.5932C19.8596 70.4731 19.7623 70.3757 19.6421 70.3757H18.2691C18.149 70.3757 18.0516 70.2783 18.0516 70.1582V69.2894C18.0516 69.1692 18.149 69.0719 18.2691 69.0719H22.9713C23.0914 69.0719 23.1888 69.1692 23.1888 69.2894V70.1582C23.1888 70.2783 23.0914 70.3757 22.9713 70.3757H21.5548C21.4347 70.3757 21.3373 70.4731 21.3373 70.5932V74.939C21.3373 75.0592 21.24 75.1565 21.1198 75.1565H20.0771Z" fill="white"/>
<path fill-rule="evenodd" clip-rule="evenodd" d="M27.3462 75.1565C27.1927 75.1565 27.0875 75.0018 27.144 74.859L29.3796 69.2093C29.4125 69.1264 29.4927 69.0719 29.5819 69.0719H30.5375C30.6269 69.0719 30.7073 69.1266 30.74 69.2098L32.9595 74.8595C33.0155 75.0022 32.9103 75.1565 32.757 75.1565H31.7323C31.6414 75.1565 31.5601 75.1 31.5284 75.0148L31.148 73.9918H28.9209L28.5393 75.015C28.5076 75.1001 28.4264 75.1565 28.3355 75.1565H27.3462ZM30.4337 72.0707L30.7343 72.8791H29.3358L29.634 72.0794C29.6803 71.9346 29.7296 71.7955 29.7817 71.6622C29.8339 71.5231 29.8803 71.3869 29.9208 71.2537C29.962 71.13 30.0009 71.0064 30.0376 70.8828C30.0769 71.0023 30.1162 71.1259 30.1555 71.2537C30.2019 71.3985 30.2482 71.5405 30.2946 71.6796C30.341 71.8187 30.3873 71.949 30.4337 72.0707Z" fill="white"/>
<path d="M37.8338 74.939C37.8338 75.0592 37.9312 75.1565 38.0513 75.1565H41.8061C41.9262 75.1565 42.0236 75.0592 42.0236 74.939V74.0702C42.0236 73.9501 41.9262 73.8527 41.8061 73.8527H39.5291C39.4089 73.8527 39.3115 73.7553 39.3115 73.6352V69.2894C39.3115 69.1692 39.2142 69.0719 39.094 69.0719H38.0513C37.9312 69.0719 37.8338 69.1692 37.8338 69.2894V74.939Z" fill="white"/>
<path d="M47.3468 75.1565C47.2267 75.1565 47.1293 75.0592 47.1293 74.939V69.2894C47.1293 69.1692 47.2267 69.0719 47.3468 69.0719H51.1537C51.2738 69.0719 51.3712 69.1692 51.3712 69.2894V70.1148C51.3712 70.2349 51.2738 70.3323 51.1537 70.3323H48.781C48.6609 70.3323 48.5635 70.4296 48.5635 70.5498V71.4623H50.7625C50.8826 71.4623 50.98 71.5597 50.98 71.6798V72.4443C50.98 72.5644 50.8826 72.6618 50.7625 72.6618H48.5635V73.6786C48.5635 73.7988 48.6609 73.8961 48.781 73.8961H51.2406C51.3607 73.8961 51.4581 73.9935 51.4581 74.1137V74.939C51.4581 75.0592 51.3607 75.1565 51.2406 75.1565H47.3468Z" fill="white"/>
<path d="M56.7303 74.939C56.7303 75.0592 56.8277 75.1565 56.9478 75.1565H57.9471C58.0672 75.1565 58.1646 75.0592 58.1646 74.939V73.1225C58.1646 72.9776 58.1617 72.8473 58.1559 72.7314C58.1559 72.6097 58.153 72.488 58.1472 72.3663C58.1414 72.2446 58.1298 72.1084 58.1124 71.9577C58.1008 71.8071 58.0834 71.6361 58.0603 71.4449C58.0576 71.4145 58.0548 71.3831 58.0518 71.3508L60.8114 75.0687C60.8524 75.124 60.9172 75.1565 60.986 75.1565H61.9977C62.1178 75.1565 62.2152 75.0592 62.2152 74.939V69.2894C62.2152 69.1692 62.1178 69.0719 61.9977 69.0719H60.9985C60.8784 69.0719 60.781 69.1692 60.781 69.2894V71.2363C60.7868 71.4391 60.7926 71.6274 60.7984 71.8013C60.81 71.9751 60.8215 72.1461 60.8331 72.3141C60.8505 72.4822 60.8679 72.6531 60.8853 72.827C60.8894 72.8677 60.8937 72.9088 60.8984 72.9504L58.1167 69.1607C58.0758 69.1048 58.0107 69.0719 57.9414 69.0719H56.9478C56.8277 69.0719 56.7303 69.1692 56.7303 69.2894V74.939Z" fill="white"/>
<path d="M69.2792 75.1565C69.1591 75.1565 69.0617 75.0592 69.0617 74.939V70.5932C69.0617 70.4731 68.9643 70.3757 68.8442 70.3757H67.4712C67.3511 70.3757 67.2537 70.2783 67.2537 70.1582V69.2894C67.2537 69.1692 67.3511 69.0719 67.4712 69.0719H72.1734C72.2935 69.0719 72.3909 69.1692 72.3909 69.2894V70.1582C72.3909 70.2783 72.2935 70.3757 72.1734 70.3757H70.7569C70.6368 70.3757 70.5394 70.4731 70.5394 70.5932V74.939C70.5394 75.0592 70.4421 75.1565 70.3219 75.1565H69.2792Z" fill="white"/>
</svg>
