<svg width="28" height="28" viewBox="0 0 28 28" fill="none" xmlns="http://www.w3.org/2000/svg">
<path d="M9.38784 12.7453L12.5666 15.6191L18.9932 8.82428L21.0515 10.7659L13.6737 18.5776C13.4203 18.8457 13.0722 19.0044 12.7037 19.0195C12.3352 19.0347 11.9752 18.9053 11.7006 18.6588L7.4902 14.8695L9.38784 12.7453Z" fill="black"/>
<path fill-rule="evenodd" clip-rule="evenodd" d="M27.6018 17.3152C26.8895 20.2373 25.2552 22.8525 22.9406 24.7731C20.6262 26.694 17.7546 27.8183 14.7512 27.9798C11.7479 28.1411 8.77232 27.3311 6.26525 25.6693C3.75828 24.0075 1.85308 21.5827 0.831754 18.7537C-0.189467 15.9247 -0.272561 12.8419 0.594957 9.96207C1.46248 7.082 3.23437 4.55806 5.6483 2.76385C8.06224 0.969629 10.9898 0.000427413 13.9976 1.68784e-07C16.7496 -0.000427076 19.4407 0.810269 21.7347 2.33063C24.0286 3.85097 25.8234 6.01389 26.8951 8.54875C28.0662 11.319 28.314 14.393 27.6018 17.3152ZM23.286 7.79367C22.0586 5.95656 20.3139 4.52472 18.2726 3.67902C16.2313 2.83354 13.9851 2.6124 11.8181 3.04332C9.65109 3.47446 7.66059 4.53834 6.09827 6.10066C4.53595 7.66298 3.47206 9.6535 3.04102 11.8206C2.60988 13.9875 2.83114 16.2337 3.67673 18.2751C4.52221 20.3163 5.95407 22.0609 7.79115 23.2884C9.62824 24.5159 11.7881 25.1712 13.9976 25.1712C16.9603 25.1712 19.8018 23.9943 21.8968 21.8993C23.9918 19.8042 25.1688 16.9628 25.1688 14C25.1688 11.7906 24.5135 9.63075 23.286 7.79367Z" fill="black"/>
</svg>
